<?xml version="1.0" standalone="no"?>
<!DOCTYPE svg PUBLIC "-//W3C//DTD SVG 20010904//EN"
 "http://www.w3.org/TR/2001/REC-SVG-20010904/DTD/svg10.dtd">
<svg version="1.0" xmlns="http://www.w3.org/2000/svg"
 width="484.000000pt" height="442.000000pt" viewBox="0 0 484.000000 442.000000"
 preserveAspectRatio="xMidYMid meet">

<g transform="translate(0.000000,442.000000) scale(0.100000,-0.100000)"
fill="black" stroke="none">
<path d="M1332 3212 c-10 -7 -12 -166 -10 -763 l3 -754 790 0 790 0 75 23
c110 35 197 84 277 157 170 155 253 341 253 565 0 134 -23 232 -87 360 -38 79
-61 110 -133 181 -74 75 -100 94 -191 137 -206 100 -157 96 -1009 99 -410 2
-751 0 -758 -5z m1458 -192 c156 -25 293 -99 383 -206 88 -106 127 -213 127
-354 0 -242 -154 -434 -405 -507 -53 -15 -126 -18 -622 -21 l-562 -3 -3 204
-3 204 -45 58 c-68 88 -67 85 -49 98 8 7 34 37 58 67 l43 55 -4 207 -3 208
510 0 c299 0 537 -4 575 -10z"/>
<path d="M1760 2731 l0 -141 328 0 c192 0 342 4 364 10 20 6 48 24 62 41 49
58 26 162 -45 204 -32 19 -55 20 -371 23 l-338 4 0 -141z"/>
<path d="M2706 2803 c27 -112 -9 -231 -89 -298 l-46 -39 39 -34 c22 -18 52
-55 67 -80 24 -40 28 -60 31 -144 l4 -98 49 0 c57 0 153 30 208 64 51 33 99
90 130 156 22 47 26 69 26 150 0 83 -4 103 -28 155 -34 72 -95 138 -159 171
-54 27 -155 54 -209 54 l-36 0 13 -57z"/>
<path d="M1757 2348 c-4 -29 -7 -95 -7 -145 l0 -93 356 0 c393 0 410 2 434 61
17 40 6 122 -20 160 -45 63 -51 64 -421 67 l-336 3 -6 -53z"/>
</g>
</svg>
